<?xml version="1.0" encoding="iso-8859-1"?>
<svg height="800px" width="800px" version="1.1" id="Layer_1" xmlns="http://www.w3.org/2000/svg" xmlns:xlink="http://www.w3.org/1999/xlink" viewBox="0 0 512 512" xml:space="preserve">
    <path style="fill:none; stroke:#231F20; stroke-width:2;" d="M376.051,268.016c10.088-73.513,10.892-148.054,2.387-221.679c-0.011-0.094-0.024-0.19-0.037-0.284
        C374.809,20.66,351.196,0,325.761,0c-25.434,0-49.049,20.659-52.642,46.053c-0.013,0.094-0.026,0.19-0.037,0.284
        c-6.872,59.494-7.666,119.838-2.373,179.576c-9.786-0.722-19.631-0.722-29.417,0c5.293-59.737,4.5-120.079-2.373-179.576
        c-0.011-0.094-0.024-0.19-0.037-0.284C235.289,20.659,211.674,0,186.24,0s-49.049,20.66-52.642,46.053
        c-0.014,0.094-0.026,0.19-0.037,0.284c-8.504,73.622-7.701,148.163,2.387,221.679c-30.941,26.688-48.554,63.04-48.554,100.67
        C87.395,447.71,163.031,512,256,512s168.605-64.29,168.605-143.314C424.605,331.057,406.993,294.705,376.051,268.016z M256,489.519
        "/>
</svg>
